<svg xmlns="http://www.w3.org/2000/svg" xmlns:xlink="http://www.w3.org/1999/xlink" width="50" zoomAndPan="magnify" viewBox="0 0 37.5 37.499999" height="50" preserveAspectRatio="xMidYMid meet" version="1.0"><defs><clipPath id="df1276ba07"><path d="M 1 5.132812 L 36 5.132812 L 36 22 L 1 22 Z M 1 5.132812 " clip-rule="nonzero"/></clipPath><clipPath id="d9cc83f5c7"><path d="M 1 19 L 36 19 L 36 31.78125 L 1 31.78125 Z M 1 19 " clip-rule="nonzero"/></clipPath></defs><path fill="#ed4d1b" d="M 12.828125 18.507812 L 0.875 6.878906 C 0.335938 7.597656 0.015625 8.492188 0.015625 9.460938 L 0.015625 27.550781 C 0.015625 28.519531 0.335938 29.414062 0.875 30.136719 L 12.828125 18.507812 " fill-opacity="1" fill-rule="nonzero"/><g clip-path="url(#df1276ba07)"><path fill="#ed4d1b" d="M 16.375 20.183594 C 17.570312 21.34375 19.4375 21.34375 20.628906 20.183594 L 35.230469 5.980469 C 34.511719 5.449219 33.625 5.136719 32.667969 5.136719 L 4.339844 5.136719 C 3.378906 5.136719 2.496094 5.449219 1.777344 5.980469 L 16.375 20.183594 " fill-opacity="1" fill-rule="nonzero"/></g><path fill="#ed4d1b" d="M 36.132812 6.878906 L 24.179688 18.507812 L 36.132812 30.136719 C 36.671875 29.414062 36.992188 28.519531 36.992188 27.550781 L 36.992188 9.460938 C 36.992188 8.492188 36.671875 7.597656 36.132812 6.878906 " fill-opacity="1" fill-rule="nonzero"/><g clip-path="url(#d9cc83f5c7)"><path fill="#ed4d1b" d="M 23.265625 19.394531 L 21.519531 21.097656 C 20.707031 21.886719 19.636719 22.320312 18.503906 22.320312 C 17.371094 22.320312 16.300781 21.886719 15.488281 21.097656 L 13.738281 19.394531 L 1.777344 31.03125 C 2.496094 31.5625 3.378906 31.875 4.339844 31.875 L 32.667969 31.875 C 33.625 31.875 34.511719 31.5625 35.230469 31.03125 L 23.265625 19.394531 " fill-opacity="1" fill-rule="nonzero"/></g></svg>