<svg xmlns="http://www.w3.org/2000/svg" xmlns:xlink="http://www.w3.org/1999/xlink" width="50" zoomAndPan="magnify" viewBox="0 0 37.5 37.499999" height="50" preserveAspectRatio="xMidYMid meet" version="1.0"><defs><clipPath id="b02bb8ff07"><path d="M 0 2 L 36 2 L 36 35.894531 L 0 35.894531 Z M 0 2 " clip-rule="nonzero"/></clipPath></defs><g clip-path="url(#b02bb8ff07)"><path fill="#ed4d1b" d="M 16.214844 2.113281 C 8.367188 2.984375 1.972656 9.316406 1.027344 17.148438 C 0.902344 18.136719 0.867188 19.125 0.914062 20.117188 C 0.960938 21.109375 1.09375 22.089844 1.308594 23.0625 C 1.523438 24.03125 1.820312 24.976562 2.199219 25.894531 C 2.578125 26.8125 3.03125 27.691406 3.558594 28.535156 C 4.089844 29.375 4.6875 30.164062 5.351562 30.902344 C 6.015625 31.640625 6.738281 32.316406 7.519531 32.933594 C 8.300781 33.546875 9.128906 34.089844 10.003906 34.5625 C 10.878906 35.03125 11.789062 35.425781 12.730469 35.742188 C 13.59375 35.878906 13.871094 35.34375 13.871094 34.878906 L 13.871094 31.953125 C 9.078125 32.992188 8.058594 29.636719 8.058594 29.636719 C 7.265625 27.628906 6.136719 27.089844 6.136719 27.089844 C 4.5625 26.019531 6.261719 26.054688 6.261719 26.054688 C 7.992188 26.175781 8.90625 27.835938 8.90625 27.835938 C 10.414062 30.464844 12.957031 29.6875 13.941406 29.269531 C 14.097656 28.148438 14.554688 27.386719 15.03125 26.953125 C 11.183594 26.519531 7.160156 25.03125 7.160156 18.441406 C 7.160156 16.519531 7.816406 14.980469 8.941406 13.753906 C 8.769531 13.320312 8.160156 11.519531 9.113281 9.183594 C 9.113281 9.183594 10.566406 8.714844 13.871094 10.949219 C 16.753906 10.171875 19.640625 10.171875 22.523438 10.949219 C 25.828125 8.714844 27.28125 9.183594 27.28125 9.183594 C 28.230469 11.519531 27.625 13.320312 27.453125 13.753906 C 28.578125 14.976562 29.234375 16.519531 29.234375 18.441406 C 29.234375 25.050781 25.1875 26.503906 21.328125 26.933594 C 21.953125 27.472656 22.523438 28.527344 22.523438 30.136719 L 22.523438 34.878906 C 22.523438 35.34375 22.800781 35.898438 23.683594 35.742188 C 24.6875 35.40625 25.65625 34.980469 26.582031 34.464844 C 27.511719 33.949219 28.382812 33.355469 29.199219 32.679688 C 30.019531 32.003906 30.769531 31.261719 31.449219 30.449219 C 32.132812 29.632812 32.734375 28.765625 33.257812 27.84375 C 33.777344 26.917969 34.210938 25.957031 34.554688 24.953125 C 34.902344 23.949219 35.152344 22.921875 35.308594 21.875 C 35.464844 20.824219 35.523438 19.769531 35.488281 18.710938 C 35.449219 17.648438 35.316406 16.601562 35.085938 15.566406 C 34.855469 14.53125 34.535156 13.523438 34.117188 12.546875 C 33.703125 11.570312 33.203125 10.640625 32.617188 9.757812 C 32.03125 8.871094 31.371094 8.050781 30.632812 7.285156 C 29.894531 6.523438 29.09375 5.835938 28.230469 5.21875 C 27.367188 4.601562 26.457031 4.070312 25.492188 3.621094 C 24.53125 3.175781 23.539062 2.816406 22.511719 2.554688 C 21.484375 2.289062 20.441406 2.117188 19.382812 2.042969 C 18.324219 1.972656 17.269531 1.996094 16.214844 2.113281 Z M 16.214844 2.113281 " fill-opacity="1" fill-rule="nonzero"/></g></svg>