<svg xmlns="http://www.w3.org/2000/svg" xmlns:xlink="http://www.w3.org/1999/xlink" width="50" zoomAndPan="magnify" viewBox="0 0 37.5 37.499999" height="50" preserveAspectRatio="xMidYMid meet" version="1.0"><defs><clipPath id="5336839d05"><path d="M 1.738281 1.738281 L 35.046875 1.738281 L 35.046875 35.046875 L 1.738281 35.046875 Z M 1.738281 1.738281 " clip-rule="nonzero"/></clipPath></defs><g clip-path="url(#5336839d05)"><path fill="#ed4d1b" d="M 32.464844 1.738281 L 4.558594 1.738281 C 3.015625 1.738281 1.773438 2.996094 1.773438 4.523438 L 1.773438 32.480469 C 1.773438 34.023438 3.03125 35.265625 4.558594 35.265625 L 32.449219 35.265625 C 33.992188 35.265625 35.230469 34.007812 35.230469 32.480469 L 35.230469 4.523438 C 35.25 2.996094 34.007812 1.738281 32.464844 1.738281 Z M 11.683594 29.394531 L 6.738281 29.394531 L 6.738281 14.535156 L 11.683594 14.535156 Z M 9.203125 12.742188 C 7.644531 12.742188 6.386719 11.484375 6.386719 9.921875 C 6.386719 8.363281 7.644531 7.105469 9.203125 7.105469 C 10.761719 7.105469 12.019531 8.363281 12.019531 9.921875 C 12.019531 11.484375 10.761719 12.742188 9.203125 12.742188 Z M 30.300781 29.394531 L 25.335938 29.394531 L 25.21875 20.574219 C 25.21875 20.574219 25.335938 18.226562 22.769531 18.242188 C 20.203125 18.257812 19.851562 20.574219 19.851562 20.574219 L 19.851562 29.394531 L 14.855469 29.394531 L 14.855469 14.535156 L 19.652344 14.535156 L 19.652344 16.582031 C 19.652344 16.582031 19.851562 15.910156 20.960938 15.121094 C 22.066406 14.335938 23.894531 14.167969 24.683594 14.199219 C 25.46875 14.234375 26.542969 14.101562 28.339844 15.339844 C 30.265625 16.664062 30.316406 20.136719 30.316406 20.136719 Z M 30.300781 29.394531 " fill-opacity="1" fill-rule="nonzero"/></g></svg>